<?xml version="1.0" standalone="no"?>
<!DOCTYPE svg PUBLIC "-//W3C//DTD SVG 20010904//EN"
 "http://www.w3.org/TR/2001/REC-SVG-20010904/DTD/svg10.dtd">
<svg version="1.0" xmlns="http://www.w3.org/2000/svg"
 width="512.000000pt" height="512.000000pt" viewBox="0 0 512.000000 512.000000"
 preserveAspectRatio="xMidYMid meet">
<metadata>
Created by potrace 1.11, written by Peter Selinger 2001-2013
</metadata>
<g transform="translate(0.000000,512.000000) scale(0.100000,-0.100000)"
fill="#000000" stroke="none">
<path d="M1908 4075 c-2 -1 -34 -5 -72 -9 -38 -4 -71 -8 -75 -10 -3 -2 -22 -7
-41 -10 -114 -18 -383 -136 -421 -185 -15 -18 -19 -34 -15 -57 6 -28 2 -34
-52 -77 -42 -33 -62 -43 -73 -36 -33 21 -67 9 -113 -39 -141 -147 -257 -371
-301 -581 -24 -118 -35 -268 -25 -360 7 -61 16 -53 -110 -91 -307 -92 -527
-338 -595 -664 -17 -83 -13 -265 9 -346 45 -167 143 -308 291 -417 86 -64 181
-106 316 -140 13 -3 238 -7 499 -8 514 -2 521 -2 534 51 5 20 12 22 76 22 68
0 71 -1 86 -30 8 -16 24 -32 35 -37 24 -8 2593 -7 2628 2 191 49 306 112 429
237 69 70 154 221 177 315 4 17 9 39 12 50 12 48 10 236 -3 304 -59 313 -285
564 -594 661 -52 17 -102 30 -112 30 -17 0 -18 23 -18 375 0 400 -2 421 -51
484 -13 17 -46 41 -74 55 l-50 25 -599 1 -599 0 -86 88 c-209 214 -426 329
-720 382 -55 10 -285 22 -293 15z"/>
</g>
</svg>
