<?xml version="1.0" standalone="no"?>
<!DOCTYPE svg PUBLIC "-//W3C//DTD SVG 20010904//EN"
 "http://www.w3.org/TR/2001/REC-SVG-20010904/DTD/svg10.dtd">
<svg version="1.0" xmlns="http://www.w3.org/2000/svg"
 width="512.000000pt" height="512.000000pt" viewBox="0 0 512.000000 512.000000"
 preserveAspectRatio="xMidYMid meet">
<metadata>
Created by potrace 1.11, written by Peter Selinger 2001-2013
</metadata>
<g transform="translate(0.000000,512.000000) scale(0.100000,-0.100000)"
fill="#000000" stroke="none">
<path d="M549 4683 c-160 -32 -293 -167 -328 -332 -14 -68 -15 -3499 0 -3576
31 -167 181 -316 344 -341 47 -7 3820 -10 3950 -3 175 9 326 136 376 316 17
60 18 165 16 1836 -2 1704 -3 1774 -21 1822 -45 120 -142 219 -264 266 l-57
22 -1979 1 c-1500 1 -1993 -2 -2037 -11z"/>
</g>
</svg>
